<svg width="178" height="61" viewBox="0 0 178 61" fill="none" xmlns="http://www.w3.org/2000/svg">
<path d="M146.833 61C139.768 61 133.017 58.7048 127.563 54.4233C122.108 58.6606 115.357 61 108.292 61C101.228 61 94.477 58.7048 89.0224 54.4233C83.5677 58.6606 76.8165 61 69.7522 61C62.688 61 55.9368 58.7048 50.4821 54.4233C45.0275 58.6606 38.2762 61 31.212 61C22.9853 61 15.2504 57.9103 9.39341 52.2605C3.44694 46.6107 0.138386 39.063 0.00425569 31.0297C-0.129875 22.9522 2.91042 15.3162 8.58862 9.44573C14.2221 3.61939 21.8676 0.264834 30.0943 0H30.2284H32.1956C38.9022 0.220695 45.251 2.51592 50.4374 6.53256C55.5791 2.51592 61.9279 0.220695 68.6345 0L68.7686 3.44284V0H70.7359C77.4424 0.220695 83.7913 2.51592 88.9776 6.53256C94.164 2.51592 100.468 0.220695 107.219 0H107.354H109.321C116.027 0.220695 122.376 2.51592 127.563 6.53256C132.704 2.51592 139.053 0.220695 145.804 0L145.938 3.44284V0H147.906C156.088 0.264834 163.733 3.61939 169.411 9.44573C175.09 15.2721 178.13 22.9522 177.996 30.9855C177.862 39.063 174.553 46.6107 168.696 52.2605C162.75 57.9103 155.015 61 146.833 61ZM132.66 49.4356C136.639 52.3046 141.557 54.0261 146.833 54.0261C159.843 54.0261 170.619 43.6534 170.797 30.9414C171.021 18.2294 160.648 7.54776 147.682 7.06223H145.983C141.02 7.23878 136.46 8.91606 132.704 11.6085C137.175 17.1259 139.5 23.9233 139.411 31.0297C139.232 37.7829 136.907 44.1831 132.66 49.4356ZM94.1193 49.4356C98.0985 52.3046 103.017 54.0261 108.292 54.0261C113.568 54.0261 118.442 52.3046 122.421 49.4356C118.218 44.2272 115.848 37.7829 115.714 31.0297C115.58 23.9233 117.95 17.1259 122.421 11.6085C118.665 8.91606 114.105 7.23878 109.142 7.06223H107.443C102.48 7.23878 97.9197 8.91606 94.164 11.6085C98.6351 17.1259 100.96 23.9233 100.871 31.0297C100.692 37.7829 98.3221 44.1831 94.1193 49.4356ZM55.5344 49.4356C59.5136 52.3046 64.4317 54.0261 69.7075 54.0261C74.9833 54.0261 79.8568 52.3046 83.836 49.4356C79.6332 44.2272 77.2636 37.7829 77.1294 31.0297C76.9953 23.9233 79.3649 17.1259 83.836 11.6085C80.0803 8.91606 75.5199 7.23878 70.557 7.06223H68.858C63.8952 7.23878 59.3348 8.91606 55.5791 11.6085C60.0501 17.1259 62.375 23.9233 62.2856 31.0297C62.1068 37.7829 59.7371 44.1831 55.5344 49.4356ZM30.2731 7.01809C17.3071 7.45948 6.93434 18.1852 7.15789 30.8973C7.38145 43.6093 18.1119 53.9819 31.1226 53.9819C36.3984 53.9819 41.2718 52.2605 45.251 49.3915C41.0483 44.1831 38.6786 37.7388 38.5445 30.9855C38.4104 23.8792 40.78 17.0818 45.251 11.5644C41.4954 8.87193 36.9349 7.19465 31.9721 7.01809H30.2731ZM88.9776 16.5962C85.9373 20.6129 84.1936 25.5564 84.2831 30.8973C84.3725 35.9291 86.1162 40.6078 88.9776 44.4038C91.8391 40.6078 93.5828 35.9291 93.6722 30.8973C93.7616 25.5564 91.9732 20.6129 88.9776 16.5962ZM50.3927 16.5962C47.3524 20.6129 45.6087 25.5564 45.6981 30.8973C45.7875 35.9291 47.5312 40.6078 50.3927 44.4038C53.2542 40.6078 54.9979 35.9291 55.0873 30.8973C55.1767 25.5564 53.433 20.6129 50.3927 16.5962ZM127.518 16.5962C124.478 20.6129 122.734 25.5564 122.823 30.8973C122.913 35.9291 124.656 40.6078 127.518 44.4038C130.379 40.6078 132.123 35.9291 132.212 30.8973C132.347 25.5564 130.558 20.6129 127.518 16.5962Z" fill="#6B7280"/>
</svg>
