<svg width="91" height="91" viewBox="0 0 91 91" fill="none" xmlns="http://www.w3.org/2000/svg">
<path d="M45.5 0C20.3715 0 0 20.1955 0 45.1049C0 70.0155 20.3715 90.2111 45.5 90.2111C70.6285 90.2111 91 70.0155 91 45.1049C91 20.1968 70.6285 0 45.5 0ZM88.0407 45.1049C88.0407 68.3953 68.9955 87.277 45.5 87.277C22.0045 87.277 2.95925 68.3953 2.95925 45.1049C2.95925 21.8158 22.0058 2.93281 45.5 2.93281C68.9942 2.93281 88.0407 21.8158 88.0407 45.1049Z" fill="#6B7280"/>
<path d="M67.5523 25.9682C68.1696 26.6263 69.0609 27.6877 69.5612 28.332L78.7746 22.5342C78.3145 21.9376 77.5803 21.0308 77.0335 20.3914L71.198 24.216L70.7995 24.5551L71.0961 24.1256L73.6732 19.0287L71.8504 17.2225L66.7063 19.776L66.2739 20.0699L66.6183 19.6755L70.4776 13.8941C69.7988 13.3213 69.1464 12.7963 68.3154 12.1607L62.4661 21.2857C63.2078 21.8509 64.1845 22.6799 64.8068 23.2451L70.313 20.4128L70.665 20.1553L70.406 20.5057L67.5523 25.9682ZM46.6453 14.4027L49.1633 8.81346L49.3229 8.31733L49.2777 8.83355L49.5417 16.3044C50.4254 16.3873 51.3381 16.5091 52.2369 16.6573L51.8271 5.59302C50.57 5.45486 49.3179 5.35689 48.0658 5.30414L45.5855 11.4059L45.4975 11.8593L45.4095 11.4071L42.933 5.30414C41.6797 5.35689 40.4276 5.45486 39.1705 5.59302L38.7619 16.6586C39.6607 16.5078 40.5721 16.3898 41.4559 16.3044L41.7199 8.83355L41.6746 8.31733L41.8355 8.8122L44.3523 14.4027H46.6453ZM26.2838 23.2213C27.7395 21.7015 28.5629 19.9456 27.1084 18.27C26.3165 17.3607 24.9864 17.161 23.8839 17.6094L23.7746 17.6521L23.8098 17.5566C23.9732 17.1245 24.0775 15.7454 22.8921 14.7934C22.3138 14.3286 21.5897 14.1566 20.8556 14.2307C19.4891 14.3688 18.4381 15.2945 15.5757 18.4584C14.7108 19.413 13.4537 20.9202 12.6994 21.8949L20.5614 29.2891C23.1674 26.4304 24.2297 25.3665 26.2838 23.2213ZM16.0257 21.4126C17.6072 19.4921 19.2905 17.75 20.0535 17.0605C20.2949 16.8432 20.5564 16.6259 20.8744 16.5405C21.3911 16.3998 21.9241 16.7641 22.0435 17.2891C22.1642 17.8166 21.8298 18.3178 21.4577 18.731C20.6205 19.668 17.5493 22.852 17.5493 22.852L16.0245 21.4126H16.0257ZM19.1044 24.309C19.1044 24.309 22.0951 21.1739 23.0719 20.1716C23.459 19.7735 23.708 19.5311 23.9757 19.4017C24.3202 19.2346 24.6973 19.2007 25.0355 19.4231C25.3661 19.6441 25.5195 20.0222 25.4365 20.399C25.3372 20.8474 24.9676 21.2744 24.6634 21.601L20.6984 25.8074L19.1044 24.309Z" fill="#6B7280"/>
<path d="M72.4827 45.1049H45.5V18.3567C60.4119 18.3567 72.4827 30.3228 72.4827 45.1049ZM45.5 45.1049V71.8531C30.5881 71.8531 18.5173 59.887 18.5173 45.1049H45.5Z" fill="#6B7280"/>
<path d="M71.4616 46.1047C70.945 59.5356 60.0676 70.3249 46.4997 70.8323V46.1047H71.4616ZM44.4997 44.1047H19.5388C20.0555 30.6753 30.9322 19.8849 44.4997 19.3772V44.1047Z" stroke="#6B7280" stroke-width="2"/>
</svg>
