<svg width="165" height="62" viewBox="0 0 165 62" fill="none" xmlns="http://www.w3.org/2000/svg">
<path d="M135.812 21.2178C135.932 21.0112 135.806 20.8562 135.543 20.8562C134.173 20.8562 132.38 20.8618 130.96 20.8618C130.622 20.8618 130.444 20.9021 130.284 21.2178C129.757 22.2282 123.346 31.8554 122.155 33.7212C121.954 34.0082 121.708 33.9679 121.679 33.6408C121.559 32.5328 120.602 31.2525 119.095 30.6441C117.95 30.1791 116.821 30.0929 115.658 30.2479C113.55 30.5292 111.671 31.6487 110.021 32.9001C107.535 34.7946 105.386 37.2517 102.614 39.0716C101.101 40.0588 99.0275 40.92 97.641 39.6341C96.3865 38.4687 96.5298 35.8796 98.4488 33.8762C98.6493 33.6637 98.8957 33.8417 98.8555 34.0312C98.6722 34.9382 98.8957 35.8395 99.5831 36.4709C100.42 37.2229 101.617 37.3091 102.642 36.8038C103.851 36.2012 104.561 35.0416 104.773 33.7268C105.094 31.6832 103.524 29.8805 101.559 29.7371C99.9612 29.6222 98.4317 30.1791 96.9423 31.4133C96.1973 32.0333 95.7678 32.4925 95.1262 33.4168C94.9715 33.6408 94.7252 33.6637 94.7366 33.3308C94.811 30.7129 93.7341 29.2433 91.5744 29.1917C89.9016 29.1516 88.1084 30.0642 86.7163 31.1779C85.1868 32.4066 83.8519 34.0425 82.4198 35.5754C82.2422 35.7649 82.0875 35.7533 82.036 35.3859C81.9902 33.6522 81.5604 31.9759 80.7583 30.7818C80.4777 30.3684 79.8818 30.1618 79.3778 30.4432C79.1487 30.5695 78.3409 30.9425 77.7566 31.4133C77.4643 31.6545 77.3555 31.9988 77.4815 32.4467C78.2549 35.0358 78.0831 37.9808 77.0348 40.4666C76.0723 42.7455 74.199 44.8008 71.9991 45.4954C70.5497 45.9546 69.0431 45.7308 68.1093 44.4449C66.8319 42.6709 67.3475 39.5767 69.2551 37.0163C70.9393 34.7601 73.3741 33.325 75.8031 32.4008C76.0894 32.2917 76.1467 32.1079 76.0665 31.8612C75.9347 31.4592 75.7229 30.9138 75.6369 30.6671C75.4135 30.0758 74.7891 29.9782 74.027 30.0584C72.2627 30.2651 70.6701 30.8679 69.0947 31.7118C64.9758 33.9221 62.9134 38.1988 62.0082 40.4895C61.5729 41.5917 61.2004 42.2749 60.7193 42.8833C60.0719 43.6984 59.2527 44.4449 57.7631 45.7595C57.6257 45.88 57.5282 46.1325 57.6428 46.3622C57.7975 46.6779 58.5709 47.7745 58.7887 47.8721C59.0292 47.9925 59.3156 47.8262 59.4245 47.7458C60.467 47.0396 61.716 45.9145 62.3289 45.1509C62.5409 44.8925 62.7643 45.0017 62.879 45.3978C63.4519 47.4358 64.9413 49.1005 67.0037 49.7951C70.7788 51.0696 74.6973 49.2212 77.6535 46.0063C79.5325 43.9625 80.2085 42.6479 80.9303 41.7525C82.1504 40.2368 84.5566 36.8441 87.4268 34.6683C88.4808 33.8646 89.724 33.2562 90.3483 33.6579C90.8525 33.9851 91.013 34.7429 90.2052 36.2125C87.2834 41.5629 82.9811 47.8491 82.1906 49.3762C82.0473 49.6401 82.1733 49.8468 82.4484 49.8468C83.9779 49.8412 85.4962 49.8412 86.8825 49.8412C87.1116 49.8296 87.2148 49.7263 87.335 49.5599C89.5807 46.0408 91.6888 42.6882 93.9519 39.2266C94.0779 39.0199 94.1923 39.1805 94.1981 39.2725C94.2439 40.0762 94.4443 41.1783 94.9199 41.8959C95.7735 43.2278 96.9881 43.8018 98.3344 43.8133C99.4055 43.8249 99.944 43.6641 101.101 43.2334C102.041 42.8833 102.797 42.4241 103.37 42.0108C103.708 41.7754 103.765 42.1716 103.759 42.2288C103.238 45.0246 103.88 48.3313 106.652 49.7091C109.969 51.3451 113.613 49.0432 115.71 46.965C115.916 46.7641 116.134 46.7871 116.156 47.2175C116.202 48.0099 116.558 48.9513 117.216 49.6116C118.975 51.3796 122.515 50.6792 126.073 47.9179C128.359 46.1499 130.748 43.6525 132.907 41.0118C132.988 40.9084 133.045 40.7478 132.89 40.5813C132.564 40.2368 132.088 39.8408 131.762 39.5366C131.613 39.4101 131.395 39.4446 131.269 39.5422C129.058 41.6491 127.064 44.0545 124.182 46.0466C123.214 46.7238 121.662 47.275 120.969 46.3334C120.699 45.9662 120.728 45.4609 120.997 44.795C121.834 42.6938 135.124 22.4118 135.812 21.2178ZM118.247 38.2218C118.276 38.3768 118.477 38.5262 118.677 38.6008C118.746 38.6237 118.786 38.6754 118.706 38.8418C118.139 40.0532 117.623 40.7534 116.913 41.8099C116.26 42.7858 115.526 43.5434 114.638 44.2725C113.298 45.3863 111.436 46.5918 109.895 45.7825C109.213 45.4266 108.915 44.4678 108.927 43.6928C108.961 41.5113 109.929 39.2667 111.717 37.0679C113.899 34.3755 116.311 32.9805 117.892 33.7441C119.531 34.5249 119.009 36.425 118.276 37.9175C118.219 38.0325 118.213 38.13 118.247 38.2218ZM39.4081 49.7666C34.4529 49.8009 30.0875 46.7296 29.5833 41.4195C29.3026 38.4745 30.1333 35.8509 31.8003 33.6925C33.2726 31.7692 35.7703 30.1675 37.8842 29.7772C38.5718 29.6509 39.4941 29.7313 39.8779 30.1849C40.4795 30.8851 40.3019 31.6487 39.7061 31.9587C38.0962 32.7854 36.1543 34.1975 35.1918 36.1208C34.4127 37.6937 34.258 39.5938 35.4439 41.3966C37.4318 44.4104 42.983 44.4908 48.1389 39.6858C49.4163 38.5088 50.5564 37.3837 51.7193 36.0462C53.9937 33.4455 54.744 32.4925 57.7689 28.2962C57.8033 28.2501 57.8146 28.1813 57.7975 28.1525C57.7746 28.1009 57.7288 28.0837 57.6428 28.0779C55.6263 28.1354 53.8675 28.7382 52.1605 30.0183C51.6678 30.38 50.9631 30.3283 50.648 29.8518C50.3044 29.3179 50.5506 28.6175 51.1178 28.2272C53.8675 26.3099 56.8695 25.9654 59.9343 25.4487C59.9343 25.4487 60.1463 25.4601 60.3239 25.2249C61.5842 23.6059 62.5352 22.1478 63.8757 20.5117C65.2278 18.8526 66.975 17.3255 68.3098 16.1832C70.1717 14.5757 71.3633 14.0361 72.5778 13.3759C72.8985 13.2095 72.5376 13.0085 72.4402 13.0085C65.6631 11.7341 58.6225 10.0807 51.8911 12.578C47.2337 14.3232 45.1885 18.0259 46.1739 20.5002C46.8728 22.2568 49.1756 22.5382 51.3355 21.4818C53.1286 20.6035 54.7842 19.1855 55.9585 17.36C56.6174 16.3496 58.0038 17.0787 57.2533 18.8354C55.2827 23.4738 51.5189 27.1537 46.9357 27.3087C43.0346 27.435 40.5195 24.5588 40.5253 21.0112C40.5424 14.0132 48.3165 9.40908 56.4799 8.71445C66.3163 7.89925 75.6311 10.5228 85.3986 11.7111C92.8805 12.6182 100.059 12.6411 107.575 10.9074C108.463 10.7122 109.087 11.2805 109.03 12.1818C108.955 13.485 107.953 14.7365 105.472 16.0913C102.654 17.6413 99.7091 18.1063 96.6271 18.135C89.1853 18.1982 82.248 15.2876 75.0755 13.7261C75.0869 14.0418 75.1671 14.415 74.9035 14.6159C70.9279 17.5552 67.3359 20.5346 64.9298 24.7254C64.8495 24.8229 64.8955 24.9149 65.0329 24.9033C67.1239 24.7942 69.0029 24.7368 70.9508 24.5818C71.2888 24.5532 71.3059 24.4671 71.2715 24.2201C71.0997 22.7734 71.518 21.1317 72.7896 19.995C74.0844 18.8296 75.7113 18.6976 76.7883 19.5357C78.0144 20.4944 77.9055 22.2109 77.2352 23.5025C76.5534 24.8116 75.4307 25.5118 74.3479 25.8505C74.3479 25.8505 74.1246 25.9022 74.1532 26.1088C74.199 26.4418 75.6713 27.2571 75.7973 27.4751C75.9176 27.6818 75.8547 28.0033 75.6311 28.2501C75.4764 28.4282 75.2302 28.5946 74.9208 28.5888C74.6688 28.5832 74.5141 28.4971 74.1932 28.3191C73.5345 27.9575 72.7096 27.3718 72.1538 26.6772C71.9647 26.4418 71.8731 26.4362 71.4033 26.4649C69.2952 26.5854 66.0012 26.9068 63.7726 27.1825C63.2341 27.2513 63.1539 27.3488 63.0394 27.5383C59.4818 33.4112 55.6894 39.7488 51.5245 43.9855C47.0675 48.5379 43.3495 49.7378 39.4081 49.7666ZM73.2823 23.6633C73.3396 23.9675 73.4543 24.025 73.5917 23.9963C74.2677 23.8584 75.0124 23.3017 75.4478 22.6587C75.8489 22.0732 76.0378 21.2234 75.6369 20.8849C75.2818 20.5805 74.7088 20.6667 74.2793 21.0455C73.4314 21.7975 73.1736 22.8654 73.2823 23.6633ZM82.5 0C36.7099 0 0 13.7548 0 31C0 48.1418 37.0077 62 82.5 62C127.992 62 165 48.0959 165 31C165 13.9098 127.992 0 82.5 0ZM82.5 59.6463C38.5374 59.6463 2.78991 46.8617 2.78991 31.2238C2.78991 15.5861 38.5374 2.37667 82.5 2.37667C126.462 2.37667 162.221 15.5804 162.221 31.2238C162.221 46.8617 126.462 59.6463 82.5 59.6463Z" fill="#6B7280"/>
</svg>
