<svg width="16" height="19" viewBox="0 0 16 19" fill="none" xmlns="http://www.w3.org/2000/svg">
<path d="M6.80556 18.4722V15.5556H0V13.6111H15.5556V15.5556H8.75V18.4722H6.80556ZM4.86111 8.26389C5.13657 8.26389 5.36748 8.17072 5.55382 7.98438C5.74016 7.79804 5.83333 7.56714 5.83333 7.29167C5.83333 7.01621 5.74016 6.78531 5.55382 6.59896C5.36748 6.41262 5.13657 6.31945 4.86111 6.31945C4.58565 6.31945 4.35475 6.41262 4.1684 6.59896C3.98206 6.78531 3.88889 7.01621 3.88889 7.29167C3.88889 7.56714 3.98206 7.79804 4.1684 7.98438C4.35475 8.17072 4.58565 8.26389 4.86111 8.26389ZM10.6944 8.26389C10.9699 8.26389 11.2008 8.17072 11.3872 7.98438C11.5735 7.79804 11.6667 7.56714 11.6667 7.29167C11.6667 7.01621 11.5735 6.78531 11.3872 6.59896C11.2008 6.41262 10.9699 6.31945 10.6944 6.31945C10.419 6.31945 10.1881 6.41262 10.0017 6.59896C9.81539 6.78531 9.72222 7.01621 9.72222 7.29167C9.72222 7.56714 9.81539 7.79804 10.0017 7.98438C10.1881 8.17072 10.419 8.26389 10.6944 8.26389ZM0.972222 5.44445L2.57639 0.777783C2.65741 0.550931 2.79109 0.364588 2.97743 0.218755C3.16377 0.0729217 3.37037 5.05149e-06 3.59722 5.05149e-06H11.9583C12.1852 5.05149e-06 12.3918 0.0729217 12.5781 0.218755C12.7645 0.364588 12.8981 0.550931 12.9792 0.777783L14.5833 5.44445V11.8611C14.5833 12.088 14.5104 12.2743 14.3646 12.4201C14.2188 12.566 14.0324 12.6389 13.8056 12.6389H13.4167C13.1898 12.6389 13.0035 12.566 12.8576 12.4201C12.7118 12.2743 12.6389 12.088 12.6389 11.8611V10.6945H2.91667V11.8611C2.91667 12.088 2.84375 12.2743 2.69792 12.4201C2.55208 12.566 2.36574 12.6389 2.13889 12.6389H1.75C1.52315 12.6389 1.33681 12.566 1.19097 12.4201C1.04514 12.2743 0.972222 12.088 0.972222 11.8611V5.44445ZM3.54861 3.88889H12.0069L11.3264 1.94445H4.22917L3.54861 3.88889ZM2.91667 8.75001H12.6389V5.83334H2.91667V8.75001Z" fill="#FFC107"/>
</svg>
