<svg width="22" height="19" viewBox="0 0 22 19" fill="none" xmlns="http://www.w3.org/2000/svg">
<path d="M16.5278 5.83334C16.2523 5.83334 16.0214 5.74017 15.8351 5.55383C15.6487 5.36748 15.5556 5.13658 15.5556 4.86112C15.5556 4.73149 15.5839 4.60591 15.6406 4.48438C15.6973 4.36285 15.7662 4.26158 15.8472 4.18056C16.0417 3.98612 16.4873 3.76737 17.184 3.52431C17.8808 3.28126 18.2292 3.15973 18.2292 3.15973C18.0995 3.53241 17.978 3.88079 17.8646 4.20487C17.7674 4.48033 17.658 4.74769 17.5365 5.00695C17.4149 5.26621 17.3056 5.44445 17.2083 5.54167C17.1273 5.62269 17.026 5.69156 16.9045 5.74827C16.783 5.80498 16.6574 5.83334 16.5278 5.83334ZM1.94444 18.4722C1.40972 18.4722 0.951968 18.2818 0.571181 17.901C0.190394 17.5203 0 17.0625 0 16.5278V2.91667C0 2.38195 0.190394 1.9242 0.571181 1.54341C0.951968 1.16262 1.40972 0.972227 1.94444 0.972227H7.77778C8.3125 0.972227 8.77025 1.16262 9.15104 1.54341C9.53183 1.9242 9.72222 2.38195 9.72222 2.91667V10.8646C9.86806 10.816 10.022 10.7755 10.184 10.7431C10.3461 10.7107 10.5162 10.6945 10.6944 10.6945C11.5046 10.6945 12.1933 10.978 12.7604 11.5451C13.3275 12.1123 13.6111 12.8009 13.6111 13.6111V15.5556C13.6111 15.831 13.7043 16.0619 13.8906 16.2483C14.077 16.4346 14.3079 16.5278 14.5833 16.5278C14.8588 16.5278 15.0897 16.4346 15.276 16.2483C15.4624 16.0619 15.5556 15.831 15.5556 15.5556V10.6945H14.5833V9.30903C13.7083 8.93635 13.0035 8.35302 12.4688 7.55903C11.934 6.76505 11.6667 5.86575 11.6667 4.86112C11.6667 3.51621 12.1406 2.3698 13.0885 1.42188C14.0365 0.473963 15.1829 5.05149e-06 16.5278 5.05149e-06C17.8727 5.05149e-06 19.0191 0.473963 19.967 1.42188C20.9149 2.3698 21.3889 3.51621 21.3889 4.86112C21.3889 5.86575 21.1215 6.76505 20.5868 7.55903C20.0521 8.35302 19.3472 8.93635 18.4722 9.30903V10.6945H17.5V15.5556C17.5 16.3657 17.2164 17.0544 16.6493 17.6215C16.0822 18.1887 15.3935 18.4722 14.5833 18.4722C13.7731 18.4722 13.0845 18.1887 12.5174 17.6215C11.9502 17.0544 11.6667 16.3657 11.6667 15.5556V13.6111C11.6667 13.3357 11.5735 13.1048 11.3872 12.9184C11.2008 12.7321 10.9699 12.6389 10.6944 12.6389C10.419 12.6389 10.1881 12.7321 10.0017 12.9184C9.81539 13.1048 9.72222 13.3357 9.72222 13.6111V16.5278C9.72222 17.0625 9.53183 17.5203 9.15104 17.901C8.77025 18.2818 8.3125 18.4722 7.77778 18.4722H1.94444ZM16.5278 7.77778C17.338 7.77778 18.0266 7.49422 18.5938 6.92709C19.1609 6.35996 19.4444 5.6713 19.4444 4.86112C19.4444 4.05093 19.1609 3.36227 18.5938 2.79514C18.0266 2.22801 17.338 1.94445 16.5278 1.94445C15.7176 1.94445 15.0289 2.22801 14.4618 2.79514C13.8947 3.36227 13.6111 4.05093 13.6111 4.86112C13.6111 5.6713 13.8947 6.35996 14.4618 6.92709C15.0289 7.49422 15.7176 7.77778 16.5278 7.77778ZM1.94444 16.5278H7.77778V14.5833L5.83333 16.5278V13.7813L7.77778 11.8368V9.72223L5.83333 11.6667V8.92014L7.77778 6.9757V4.86112L5.83333 6.80556V4.05903L6.97569 2.91667H2.74653L3.88889 4.05903V6.80556L1.94444 4.86112V6.9757L3.88889 8.92014V11.6667L1.94444 9.72223V11.8368L3.88889 13.7813V16.5278L1.94444 14.5833V16.5278Z" fill="#FFC107"/>
</svg>
