<svg width="22" height="18" viewBox="0 0 22 18" fill="none" xmlns="http://www.w3.org/2000/svg">
<path d="M0 17.5V15.5556H21.3889V17.5H0ZM2.91667 14.5833C2.38194 14.5833 1.92419 14.3929 1.5434 14.0122C1.16262 13.6314 0.972222 13.1736 0.972222 12.6389V1.94444C0.972222 1.40972 1.16262 0.951967 1.5434 0.57118C1.92419 0.190393 2.38194 -2.98023e-07 2.91667 -2.98023e-07H18.4722C19.0069 -2.98023e-07 19.4647 0.190393 19.8455 0.57118C20.2263 0.951967 20.4167 1.40972 20.4167 1.94444V12.6389C20.4167 13.1736 20.2263 13.6314 19.8455 14.0122C19.4647 14.3929 19.0069 14.5833 18.4722 14.5833H2.91667ZM2.91667 12.6389H18.4722V1.94444H2.91667V12.6389Z" fill="#FFC107"/>
</svg>
