<svg width="18" height="18" viewBox="0 0 18 18" fill="none" xmlns="http://www.w3.org/2000/svg">
<path d="M0.972222 17.5C0.696759 17.5 0.465856 17.4068 0.279514 17.2205C0.0931713 17.0341 0 16.8032 0 16.5278C0 16.2523 0.0931713 16.0214 0.279514 15.8351C0.465856 15.6487 0.696759 15.5556 0.972222 15.5556H1.94444V9.72222H0.972222C0.696759 9.72222 0.465856 9.62905 0.279514 9.44271C0.0931713 9.25637 0 9.02546 0 8.75C0 8.47454 0.0931713 8.24363 0.279514 8.05729C0.465856 7.87095 0.696759 7.77778 0.972222 7.77778H1.94444V1.94444H0.972222C0.696759 1.94444 0.465856 1.85127 0.279514 1.66493C0.0931713 1.47859 0 1.24768 0 0.972222C0 0.696759 0.0931713 0.465856 0.279514 0.279514C0.465856 0.093171 0.696759 -2.98023e-07 0.972222 -2.98023e-07H16.5278C16.8032 -2.98023e-07 17.0341 0.093171 17.2205 0.279514C17.4068 0.465856 17.5 0.696759 17.5 0.972222C17.5 1.24768 17.4068 1.47859 17.2205 1.66493C17.0341 1.85127 16.8032 1.94444 16.5278 1.94444H15.5556V7.77778H16.5278C16.8032 7.77778 17.0341 7.87095 17.2205 8.05729C17.4068 8.24363 17.5 8.47454 17.5 8.75C17.5 9.02546 17.4068 9.25637 17.2205 9.44271C17.0341 9.62905 16.8032 9.72222 16.5278 9.72222H15.5556V15.5556H16.5278C16.8032 15.5556 17.0341 15.6487 17.2205 15.8351C17.4068 16.0214 17.5 16.2523 17.5 16.5278C17.5 16.8032 17.4068 17.0341 17.2205 17.2205C17.0341 17.4068 16.8032 17.5 16.5278 17.5H0.972222ZM3.88889 15.5556H13.6111V9.72222C13.3356 9.72222 13.1047 9.62905 12.9184 9.44271C12.7321 9.25637 12.6389 9.02546 12.6389 8.75C12.6389 8.47454 12.7321 8.24363 12.9184 8.05729C13.1047 7.87095 13.3356 7.77778 13.6111 7.77778V1.94444H3.88889V7.77778C4.16435 7.77778 4.39525 7.87095 4.5816 8.05729C4.76794 8.24363 4.86111 8.47454 4.86111 8.75C4.86111 9.02546 4.76794 9.25637 4.5816 9.44271C4.39525 9.62905 4.16435 9.72222 3.88889 9.72222V15.5556ZM8.75 12.6389C9.56019 12.6389 10.2488 12.3594 10.816 11.8003C11.3831 11.2413 11.6667 10.5648 11.6667 9.77083C11.6667 9.13889 11.4844 8.59606 11.1198 8.14236C10.7552 7.68866 9.96528 6.75694 8.75 5.34722C7.53472 6.74074 6.74479 7.6684 6.38021 8.13021C6.01563 8.59201 5.83333 9.13889 5.83333 9.77083C5.83333 10.5648 6.1169 11.2413 6.68403 11.8003C7.25116 12.3594 7.93981 12.6389 8.75 12.6389Z" fill="#FFC107"/>
</svg>
