<svg width="88" height="88" viewBox="0 0 88 88" fill="none" xmlns="http://www.w3.org/2000/svg">
<path d="M78.8496 62.885L50.2302 40.4955L45.1681 4.47788C51.7875 4.67257 58.0177 6.42479 63.8584 9.73451C69.8938 13.2389 74.9559 18.3009 78.4601 24.3364C81.9646 30.3716 83.7169 37.1858 83.7169 44.1948C83.5222 50.6195 81.9646 57.0442 78.8496 62.885ZM63.6636 78.4601C57.6282 81.9646 50.8142 83.7167 43.8052 83.7167C36.7965 83.7167 29.9823 81.9646 23.9469 78.4601C18.301 75.1504 13.4337 70.4778 10.1239 65.0264L43.8052 51.3983L77.4868 65.0264C74.177 70.4778 69.5045 75.1504 63.6636 78.4601ZM4.08852 44C4.08852 36.9913 5.84065 30.1771 9.34514 24.1416C12.8496 18.1062 17.9115 13.0442 23.9469 9.53983C29.593 6.23008 36.0177 4.47788 42.6372 4.28319L37.5753 40.301L8.95585 62.6903C5.84065 57.0442 4.08852 50.6195 4.08852 44ZM82.1593 22C78.2656 15.3805 72.6195 9.73452 66 5.8407C59.3806 1.9469 51.593 0 44 0C36.2125 0 28.6195 1.9469 22 5.8407C15.3805 9.73452 9.73465 15.3805 5.84065 22C1.94688 28.6195 0 36.407 0 44C0 51.7875 1.94688 59.3806 5.84065 66C9.73465 72.6195 15.3805 78.2656 22 82.1594C28.6195 86.0531 36.4072 88 44 88C51.7875 88 59.3806 86.0531 66 82.1594C72.6195 78.2656 78.2656 72.6195 82.1593 66C86.0531 59.3806 88 51.593 88 44C88 36.407 86.0531 28.6195 82.1593 22Z" fill="#6B7280"/>
</svg>
