<svg width="252" height="67" viewBox="0 0 252 67" fill="none" xmlns="http://www.w3.org/2000/svg">
<path d="M232.467 35.8061L236.424 25.6819L240.358 35.8061H232.467ZM240.519 19.9449H232.329L220.871 47.3926H227.98L230.58 40.6881H242.268L244.891 47.3926H252L240.519 19.9449ZM182.679 42.623C178.054 42.623 174.304 38.5508 174.304 33.5112C174.304 28.4717 178.054 24.3995 182.679 24.3995C187.303 24.3995 191.053 28.4942 191.053 33.5112C191.053 38.5283 187.303 42.623 182.679 42.623ZM182.679 19C174.488 19 167.862 25.5019 167.862 33.5112C167.862 41.5206 174.511 48 182.702 48C190.892 48 197.519 41.4981 197.519 33.5112C197.496 25.5019 190.869 19 182.679 19ZM124.148 42.623C119.523 42.623 115.773 38.5508 115.773 33.5112C115.773 28.4717 119.523 24.3995 124.148 24.3995C128.772 24.3995 132.523 28.4942 132.523 33.5112C132.523 38.5283 128.772 42.623 124.148 42.623ZM124.148 19C115.957 19 109.331 25.5019 109.331 33.5112C109.331 41.5206 115.98 48 124.171 48C132.362 48 138.988 41.4981 138.988 33.5112C138.988 25.5019 132.339 19 124.148 19ZM160.799 19.9449L153.528 31.059L146.258 19.9449H139.172L150.422 37.1559V47.3926H156.68V37.1559L167.931 19.9449H160.799ZM222.343 19.9449H198.347V25.2095H207.228V47.3926H213.486V25.2095H222.343V19.9449ZM84 25.2095H92.9039V47.3926H99.1619V25.2095H108.02V19.9449H84V25.2095Z" fill="#6B7280"/>
<path d="M27.6725 34.5183C27.6725 34.25 27.6725 34.0041 27.6725 33.7581C20.2573 32.7073 14.9474 29.8232 14.9474 26.4472C14.9474 26.2907 14.9474 26.1341 14.9707 26C13.076 28.1687 12 30.6951 12 33.378C12 41.0467 20.7953 47.3293 32 48C29.4971 46.1443 27.6725 40.8008 27.6725 34.5183Z" fill="#6B7280"/>
<path d="M33.5 24C31.8949 24 30.535 26.4218 30 29.8473C31.1146 29.9564 32.2962 30 33.5 30C34.7038 30 35.8854 29.9345 37 29.8473C36.465 26.4436 35.1051 24 33.5 24Z" fill="#6B7280"/>
<path d="M27.6726 29C28.5214 23.8631 30.7928 20.1671 33.5 20.1671C36.1844 20.1671 38.4787 23.8631 39.3046 29C44.4209 28.2691 48 26.6195 48 24.6984C48 22.109 41.5071 20 33.5 20C25.493 20 19.0001 22.109 19.0001 24.6984C18.9772 26.6195 22.5563 28.2691 27.6726 29Z" fill="#6B7280"/>
<path d="M0 0V67H67V0H0ZM33.5 49.7695C19.6103 49.7695 8.37502 42.4928 8.37502 33.5229C8.37502 27.1387 14.0499 21.624 22.3334 18.9696C25.4454 17.9628 29.3125 17.3678 33.5 17.3678C37.6875 17.3678 41.5547 17.9628 44.6667 18.9696C52.9273 21.624 58.625 27.1615 58.625 33.5229C58.625 42.4928 47.3897 49.7695 33.5 49.7695Z" fill="#6B7280"/>
<path d="M34 33.199C32.6272 33.199 31.3018 33.1244 30 33C30.0947 38.5721 31.8462 43 34 43C36.1538 43 37.8817 38.5721 38 33C36.6982 33.1244 35.3728 33.199 34 33.199Z" fill="#6B7280"/>
<path d="M52.2222 26.4695C52.2222 29.8455 47.1778 32.7297 40.1333 33.7805C40.1333 34.0264 40.1333 34.2947 40.1333 34.5407C40.1333 40.8232 38.4 46.1667 36 48C46.6444 47.3516 55 41.0467 55 33.378C55 30.6951 53.9778 28.1687 52.1778 26C52.2222 26.1565 52.2222 26.313 52.2222 26.4695Z" fill="#6B7280"/>
</svg>
