<svg width="91" height="91" viewBox="0 0 91 91" fill="none" xmlns="http://www.w3.org/2000/svg">
<path d="M41.2317 48.945H52.2817V45.2617H51.0684C51.0684 46.67 50.0284 47.71 48.4684 47.71H46.7784V42.2067H48.62V40.9933H41.2534V42.2067H43.1167V47.71H41.2534V48.945H41.2317Z" fill="#6B7280"/>
<path d="M57.59 48.945L61.88 48.9667L65.52 42.2067H67.3617V40.9933H61.8583V42.2067H63.44L60.7967 47.125L58.0883 42.2067H60.0167V40.9933H52.0433V42.2067H53.8633L57.59 48.945Z" fill="#6B7280"/>
<path d="M19.24 40.9933H11.245V42.2067H13.0867L16.7917 48.945L21.0817 48.9667L24.7433 42.2067H26.5633V40.9933H21.06V42.2067H22.6417L19.9983 47.125L17.3117 42.2067H19.24V40.9933Z" fill="#6B7280"/>
<path d="M27.625 44.98C27.625 47.32 29.51 49.1833 33.3017 49.1833C37.0933 49.1833 38.9567 47.32 38.9567 44.98C38.9567 42.6617 36.9633 40.82 33.28 40.82C29.5967 40.82 27.625 42.6617 27.625 44.98ZM35.2517 45.0017C35.23 46.4533 34.6233 47.9483 33.2367 47.9267C31.8933 47.905 31.2867 46.41 31.3083 44.9367C31.33 43.3983 32.0667 42.055 33.3233 42.0767C34.6233 42.0983 35.295 43.4633 35.2517 45.0017Z" fill="#6B7280"/>
<path d="M68.4017 44.98C68.4017 47.32 70.2867 49.1833 74.0783 49.1833C77.87 49.1833 79.7333 47.32 79.7333 44.98C79.7333 42.6617 77.74 40.82 74.0567 40.82C70.3733 40.82 68.4017 42.6617 68.4017 44.98ZM74.1433 42.0767C75.4 42.0983 76.0717 43.4633 76.05 45.0017C76.0283 46.4533 75.4217 47.9483 74.035 47.9267C72.6917 47.905 72.085 46.41 72.1067 44.9367C72.1283 43.3983 72.865 42.055 74.1433 42.0767Z" fill="#6B7280"/>
<path d="M82.94 19.6517L78.325 24.2667C82.29 30.3767 84.5867 37.6783 84.5867 45.5C84.5867 67.08 67.08 84.5867 45.5 84.5867C23.92 84.5867 6.41333 67.08 6.41333 45.5C6.41333 23.92 23.92 6.41333 45.5 6.41333C53.3433 6.41333 60.645 8.73167 66.7767 12.7183L71.3917 8.10333C64.0467 2.99 55.12 0 45.5 0C20.3667 0 0 20.3667 0 45.5C0 70.6333 20.3667 91 45.5 91C70.6333 91 91 70.6333 91 45.5C91 35.9017 88.0317 26.9967 82.94 19.6517Z" fill="#6B7280"/>
<path d="M68 2V3.28928C70.7752 4.79709 73.3975 6.56712 75.8231 8.57752L69.2893 15.1113C71.7586 17.0562 73.9875 19.2633 75.9324 21.7326L82.4662 15.1988C84.4766 17.6244 86.2466 20.2466 87.7544 23H89V2H68Z" fill="#6B7280"/>
</svg>
