<svg width="86" height="86" viewBox="0 0 86 86" fill="none" xmlns="http://www.w3.org/2000/svg">
<path d="M43 80.9833C22.2167 80.9833 5.19583 63.7833 5.19583 43C5.19583 38.7 5.9125 34.5792 7.34583 30.6375L29.3833 73.6375C29.7417 74.175 29.9208 74.7125 30.8167 74.7125C31.5333 74.7125 31.8917 74.175 32.25 73.6375L42.4625 50.7042C42.6417 50.3458 42.8208 50.1667 43 50.1667C43.3583 50.1667 43.3583 50.525 43.5375 50.7042L53.9292 73.6375C54.2875 74.175 54.4667 74.7125 55.3625 74.7125C56.0792 74.7125 56.4375 74.175 56.7958 73.6375L78.8333 30.6375C80.2667 34.4 80.9833 38.7 80.9833 43C80.8042 63.7833 63.7833 80.9833 43 80.9833ZM43 33.1458C42.6417 33.1458 42.6417 32.7875 42.4625 32.6083L30.6375 7.16667C38.5208 4.3 47.3 4.3 55.1833 7.16667L43.3583 32.6083C43.3583 32.7875 43.3583 33.1458 43 33.1458ZM30.6375 60.7375C30.2792 60.7375 30.2792 60.3792 30.1 60.2L10.75 23.1125C14.1542 17.5583 18.9917 12.9 24.725 9.675L38.3417 39.2375C38.7 39.775 38.8792 39.9542 39.4167 39.9542H46.5833C47.1208 39.9542 47.3 39.775 47.6583 39.2375L61.0958 9.675C66.8292 12.9 71.6667 17.5583 75.0708 23.1125L55.9 60.3792C55.7208 60.7375 55.5417 60.9167 55.3625 60.9167C55.0042 60.9167 55.0042 60.5583 54.825 60.3792L47.4792 44.075C47.1208 43.5375 46.9417 43.3583 46.4042 43.3583H39.4167C38.8792 43.3583 38.7 43.5375 38.3417 44.075L30.9958 60.3792C30.8167 60.5583 30.8167 60.7375 30.6375 60.7375ZM43 86C66.8292 86 86 66.8292 86 43C86 19.1708 66.8292 0 43 0C19.1708 0 0 19.1708 0 43C0 66.8292 19.1708 86 43 86Z" fill="#6B7280"/>
</svg>
